<svg xmlns="http://www.w3.org/2000/svg" xmlns:xlink="http://www.w3.org/1999/xlink" width="500" zoomAndPan="magnify" viewBox="0 0 375 374.999991" height="500" preserveAspectRatio="xMidYMid meet" version="1.0"><defs><filter x="0%" y="0%" width="100%" height="100%" id="26b00faa49"><feColorMatrix values="0 0 0 0 1 0 0 0 0 1 0 0 0 0 1 0 0 0 1 0" color-interpolation-filters="sRGB"/></filter><g/><mask id="8250bff85d"><g filter="url(#26b00faa49)"><rect x="-37.5" width="450" fill="#000000" y="-37.499999" height="449.999989" fill-opacity="0.9882"/></g></mask><clipPath id="c544642c3b"><path d="M 0.570312 0.582031 L 162.320312 0.582031 L 162.320312 143.082031 L 0.570312 143.082031 Z M 0.570312 0.582031 " clip-rule="nonzero"/></clipPath><clipPath id="e2048d75b8"><rect x="0" width="163" y="0" height="144"/></clipPath><mask id="bccb7c27e8"><g filter="url(#26b00faa49)"><rect x="-37.5" width="450" fill="#000000" y="-37.499999" height="449.999989" fill-opacity="0.6471"/></g></mask><clipPath id="b6b523da01"><rect x="0" width="178" y="0" height="35"/></clipPath></defs><g mask="url(#8250bff85d)"><g transform="matrix(1, 0, 0, 1, 106, 85)"><g clip-path="url(#e2048d75b8)"><g clip-path="url(#c544642c3b)"><path fill="#000000" d="M 136.046875 67.679688 C 136.914062 67.1875 137.296875 67.347656 137.320312 68.265625 C 137.351562 69.421875 137.339844 70.582031 137.316406 71.742188 C 137.308594 71.976562 136.933594 72.429688 136.855469 72.421875 C 136.585938 70.84375 136.316406 69.261719 136.046875 67.679688 Z M 158.644531 47.21875 C 157.8125 46.859375 157.550781 46.519531 157.632812 45.816406 C 157.78125 44.546875 157.96875 43.285156 158.144531 41.964844 C 159.414062 43.304688 159.621094 45.539062 158.644531 47.21875 Z M 134.375 61.398438 C 135.132812 61.160156 135.894531 60.984375 136.808594 61.003906 C 136.371094 61.78125 135.996094 62.457031 135.59375 63.175781 C 135.960938 63.394531 136.289062 63.570312 136.59375 63.78125 C 137.046875 64.097656 137.117188 64.472656 136.75 64.886719 C 136.433594 65.246094 136.046875 65.535156 135.566406 65.96875 C 135.371094 65.050781 135.238281 64.3125 135.050781 63.59375 C 134.859375 62.871094 134.609375 62.160156 134.375 61.398438 Z M 131.503906 83.199219 C 131.851562 83.554688 132.148438 83.824219 132.402344 84.128906 C 132.742188 84.542969 133.039062 84.988281 133.371094 85.402344 C 134.1875 86.433594 135.230469 86.890625 136.570312 86.890625 C 137.71875 86.886719 138.878906 87.085938 140.019531 87.257812 C 140.566406 87.339844 141.074219 87.585938 141.429688 88.128906 C 140.167969 88.128906 138.988281 88.113281 137.808594 88.132812 C 137.027344 88.148438 136.230469 88.132812 135.46875 88.28125 C 134.5625 88.460938 133.859375 88.15625 133.222656 87.613281 C 132.648438 87.121094 131.511719 84.183594 131.503906 83.199219 Z M 147.183594 77.953125 C 146.917969 78.617188 146.644531 79.28125 146.390625 79.949219 C 145.882812 81.277344 145.265625 82.539062 144.417969 83.695312 C 144.023438 84.234375 143.515625 84.582031 142.902344 84.734375 C 142.605469 84.808594 142.195312 84.757812 141.949219 84.59375 C 141.59375 84.367188 141.757812 83.964844 141.917969 83.65625 C 142.371094 82.792969 142.832031 81.9375 143.316406 81.089844 C 143.4375 80.878906 143.640625 80.710938 143.824219 80.542969 C 144.21875 80.179688 144.613281 79.820312 145.019531 79.476562 C 145.683594 78.90625 147.132812 77.898438 147.183594 77.953125 Z M 141.742188 77.261719 C 141.042969 79.453125 140.472656 81.433594 139.214844 83.132812 C 139.105469 83.28125 138.984375 83.429688 138.851562 83.566406 C 138.058594 84.390625 136.648438 84.472656 135.765625 83.746094 C 135.015625 83.125 134.847656 82.3125 135.351562 81.476562 C 135.527344 81.1875 135.773438 80.914062 136.050781 80.726562 C 137.398438 79.800781 138.757812 78.890625 140.136719 78.011719 C 140.570312 77.738281 141.074219 77.570312 141.742188 77.261719 Z M 105.144531 12.964844 C 107.214844 12.890625 109.152344 12.972656 111.082031 13.332031 C 113.019531 13.691406 114.867188 14.3125 116.820312 15.289062 C 116.398438 13.839844 115.382812 12.949219 114.925781 11.679688 C 117.929688 13.101562 122.746094 18.273438 122.839844 20.09375 C 117.109375 17.472656 111.148438 15.398438 105.144531 12.964844 Z M 107.261719 19.832031 C 106.851562 19.601562 106.453125 19.351562 106.03125 19.144531 C 104.542969 18.398438 103.089844 17.5625 101.542969 16.945312 C 96.28125 14.835938 85.0625 11.945312 84.9375 11.902344 C 85.09375 11.730469 93.679688 11.503906 97.730469 12.679688 C 100.039062 13.351562 102.257812 14.203125 104.164062 15.730469 C 105.535156 16.832031 106.566406 18.1875 107.261719 19.832031 Z M 137.605469 76.527344 C 137.429688 76.691406 134.046875 78.191406 132.542969 79.183594 C 132.367188 79.300781 131.96875 79.273438 131.78125 79.148438 C 130.269531 78.148438 129.132812 76.882812 129.195312 74.933594 C 129.234375 73.742188 129.378906 72.550781 129.492188 71.363281 C 129.542969 70.839844 129.652344 70.320312 129.761719 69.605469 C 130.359375 70.867188 130.878906 71.9375 131.371094 73.019531 C 131.746094 73.84375 132.316406 74.457031 133.136719 74.925781 C 133.148438 74.761719 133.164062 74.667969 133.15625 74.578125 C 133.148438 74.453125 133.132812 74.324219 133.09375 74.207031 C 132.492188 72.230469 132.28125 70.210938 132.238281 68.152344 C 132.207031 66.554688 132.191406 64.9375 131.664062 63.390625 C 131.511719 62.945312 131.738281 62.613281 132.1875 62.214844 C 132.59375 63.632812 133.019531 64.941406 133.339844 66.273438 C 133.875 68.507812 134.308594 70.761719 134.851562 72.992188 C 135.226562 74.527344 135.859375 75.929688 137.605469 76.527344 Z M 142.542969 55.097656 C 144.355469 54.09375 146.269531 53.011719 148.203125 51.96875 C 150.839844 50.542969 153.542969 49.308594 156.613281 49.148438 C 157.289062 49.113281 157.425781 49.136719 157.738281 49.714844 C 157.960938 50.128906 158.007812 50.542969 157.789062 50.976562 C 157.097656 52.347656 156.46875 53.757812 155.699219 55.085938 C 155.195312 55.960938 154.574219 56.785156 153.816406 57.539062 C 153.816406 56.429688 153.824219 55.40625 153.8125 54.382812 C 153.808594 53.660156 154.027344 53.042969 154.523438 52.496094 C 154.917969 52.0625 155.25 51.566406 155.742188 50.921875 C 155.277344 50.996094 155.03125 51 154.816406 51.078125 C 152.699219 51.871094 150.589844 52.675781 148.476562 53.472656 C 147.988281 53.660156 147.773438 54.019531 147.617188 54.507812 C 147.011719 56.402344 146.273438 58.242188 144.847656 59.699219 C 143.949219 60.621094 141.757812 62.621094 141.550781 62.769531 C 141.882812 60.183594 142.207031 57.695312 142.542969 55.097656 Z M 103.074219 27.976562 C 101.605469 27.375 100.304688 26.371094 98.699219 26.085938 C 97.070312 25.796875 95.4375 25.691406 93.808594 25.902344 C 91.378906 26.222656 89.996094 26.738281 89.378906 27.433594 C 89.550781 27.464844 89.699219 27.496094 89.847656 27.519531 C 91.71875 27.816406 93.53125 28.328125 95.292969 29.019531 C 95.820312 29.230469 96.304688 29.492188 96.578125 30.070312 C 94.96875 31.292969 93.046875 31.722656 91.128906 32.445312 C 92.277344 33.625 93.628906 34.21875 95.097656 34.570312 C 95.226562 37.105469 95.355469 39.5625 95.480469 42.011719 C 95.40625 42.054688 90.421875 36.015625 88.289062 33.210938 C 87.746094 32.5 87.296875 31.640625 87.074219 30.78125 C 86.476562 28.464844 86.785156 26.207031 88.019531 24.136719 C 89.386719 21.84375 91.445312 20.777344 94.117188 20.996094 C 97.304688 21.253906 100.390625 21.992188 103.371094 23.132812 C 104.269531 23.480469 105.140625 23.890625 106.078125 24.292969 C 105.0625 25.539062 104.128906 26.683594 103.074219 27.976562 Z M 111.652344 103.421875 C 111.601562 103.363281 113.378906 97.375 113.441406 94.28125 C 113.503906 91.414062 112.6875 88.679688 111.425781 86.105469 C 110.535156 84.296875 109.523438 84.125 108.035156 85.488281 C 106.78125 86.636719 105.671875 87.910156 104.671875 89.304688 C 102.914062 91.761719 99.09375 96.65625 98.863281 96.800781 C 99.179688 95.511719 99.414062 94.34375 99.757812 93.210938 C 100.765625 89.917969 102 86.730469 104.195312 84.007812 C 105.441406 82.464844 106.6875 80.921875 107.878906 79.335938 C 108.441406 78.585938 108.992188 77.789062 109.347656 76.929688 C 110.601562 73.921875 111.410156 70.796875 111.59375 67.523438 C 111.632812 66.804688 111.742188 66.085938 111.820312 65.367188 C 112.050781 65.503906 113.421875 70.589844 113.871094 73.03125 C 114.699219 77.542969 115.386719 82.085938 116.136719 86.613281 C 116.496094 88.757812 116.714844 90.914062 116.742188 93.09375 C 116.761719 94.566406 116.5 95.96875 115.957031 97.328125 C 115.367188 98.800781 114.59375 100.167969 113.589844 101.390625 C 112.996094 102.109375 112.300781 102.746094 111.652344 103.421875 Z M 31.804688 51.363281 C 32.429688 50.972656 33.046875 50.570312 33.679688 50.203125 C 36.378906 48.636719 39.015625 46.980469 41.390625 44.941406 C 44.019531 42.683594 46.054688 39.925781 47.996094 37.085938 C 49.324219 35.140625 50.519531 33.085938 51.96875 31.234375 C 55.191406 27.125 59.128906 23.820312 63.714844 21.300781 C 63.84375 21.230469 63.957031 21.136719 64.078125 21.054688 C 57.808594 20.199219 51.597656 20.585938 45.296875 21.386719 C 46.183594 20.660156 47.167969 20.328125 48.132812 19.972656 C 50.800781 18.992188 53.574219 18.414062 56.371094 17.960938 C 59.851562 17.398438 63.339844 16.859375 66.890625 17.273438 C 67.886719 17.386719 68.898438 17.445312 69.902344 17.480469 C 74 17.628906 77.8125 18.851562 81.492188 20.558594 C 81.671875 20.644531 81.820312 20.785156 82.160156 21.027344 C 81.300781 21.085938 80.644531 21.078125 80.011719 21.179688 C 76.183594 21.78125 72.398438 22.585938 68.789062 24.015625 C 65.882812 25.171875 63.105469 26.617188 60.886719 28.886719 C 58.882812 30.929688 56.980469 33.074219 55.039062 35.179688 C 52.945312 37.445312 50.945312 39.804688 48.746094 41.960938 C 46.105469 44.542969 43.039062 46.59375 39.851562 48.457031 C 37.351562 49.917969 34.617188 50.699219 31.804688 51.363281 Z M 90.429688 83.625 C 82.097656 91.859375 69.1875 92.183594 63.375 89.175781 C 66.21875 88.789062 69.023438 88.410156 71.753906 87.617188 C 74.085938 86.941406 76.421875 86.296875 78.570312 85.144531 C 82.496094 83.039062 85.753906 80.15625 88.359375 76.5625 C 89.765625 74.621094 90.941406 72.511719 91.519531 70.164062 C 92.164062 67.570312 92.667969 64.945312 93.214844 62.328125 C 93.328125 61.785156 93.351562 61.222656 93.429688 60.582031 C 89.527344 62.488281 85.472656 63.351562 81.25 63.542969 C 77.457031 63.710938 70.40625 62.402344 69.082031 61.214844 C 70.070312 61.070312 71.03125 60.917969 71.996094 60.785156 C 76.015625 60.246094 80.027344 59.675781 83.980469 58.714844 C 87.5625 57.84375 90.8125 56.402344 93.527344 53.84375 C 95.386719 52.097656 97.296875 50.40625 99.210938 48.722656 C 100.121094 47.917969 102.144531 46.515625 102.195312 46.558594 C 102.101562 46.773438 99.996094 51.03125 99.105469 52.976562 C 97.546875 56.390625 96.816406 60.027344 96.429688 63.734375 C 96.203125 65.925781 96.085938 68.128906 95.90625 70.324219 C 95.839844 71.085938 95.722656 71.839844 95.613281 72.714844 C 98.507812 70.804688 100.628906 68.320312 102.691406 65.78125 C 104.769531 63.222656 106.59375 60.5 108.144531 57.570312 C 108.183594 58.0625 107.378906 63.074219 106.898438 65.089844 C 105.90625 69.25 104.222656 73.066406 101.234375 76.234375 C 99.933594 77.617188 98.960938 79.234375 98.125 80.945312 C 96.710938 83.835938 95.644531 86.863281 94.570312 89.886719 C 94.316406 90.597656 94.125 91.328125 93.851562 92.03125 C 92.910156 94.429688 91.960938 96.828125 90.984375 99.214844 C 89.582031 102.644531 83.363281 108.996094 83.292969 108.945312 C 86.726562 100.792969 88.917969 92.300781 90.429688 83.625 Z M 145 37.433594 C 145.566406 38.613281 146.09375 39.714844 147.410156 40.101562 C 148.859375 40.527344 150.316406 40.921875 151.773438 41.3125 C 154.28125 41.984375 154.285156 41.980469 155.78125 44.054688 C 156.335938 44.820312 156.328125 45.285156 155.660156 45.949219 C 155.03125 46.574219 154.324219 47.085938 153.46875 47.386719 C 152.402344 47.761719 151.328125 48.140625 150.296875 48.601562 C 146.855469 50.144531 143.398438 51.660156 140 53.304688 C 134.820312 55.8125 130.703125 59.402344 128.652344 64.976562 C 128.644531 65.003906 128.632812 65.035156 128.621094 65.0625 C 127.085938 68.152344 126.851562 71.460938 126.972656 74.828125 C 127.027344 76.429688 127.097656 78.035156 127.234375 79.636719 C 127.28125 80.210938 127.46875 80.804688 127.707031 81.339844 C 127.949219 81.878906 128.347656 82.347656 128.644531 82.863281 C 128.800781 83.128906 128.960938 83.417969 129.003906 83.714844 C 129.257812 85.542969 129.875 87.246094 130.644531 88.914062 C 131.34375 90.441406 132.535156 91.226562 134.175781 91.332031 C 134.800781 91.371094 135.433594 91.300781 136.0625 91.269531 C 137.726562 91.195312 139.390625 91.097656 141.058594 91.042969 C 141.410156 91.03125 141.769531 91.160156 142.21875 91.242188 C 141.820312 93.808594 141.503906 96.28125 139.976562 98.363281 C 139.898438 98.351562 139.746094 96.253906 139.746094 95.214844 C 138.6875 96.359375 137.917969 97.660156 136.578125 98.527344 C 136.367188 97.777344 136.75 97.027344 136.328125 96.351562 C 134.398438 97.664062 132.9375 99.542969 130.628906 100.53125 C 131.0625 99.621094 131.433594 98.894531 131.757812 98.148438 C 132.085938 97.390625 132.53125 96.660156 132.59375 95.597656 C 130.441406 96.945312 128.445312 98.191406 126.324219 99.515625 C 126.949219 97.089844 127.953125 95.007812 129.035156 92.953125 C 128.988281 92.902344 126.761719 94.03125 125.65625 94.671875 C 125.527344 92.351562 127.003906 90.660156 127.871094 88.667969 C 126.726562 88.726562 126.015625 89.480469 125.074219 89.875 C 125.097656 89.554688 125.09375 89.308594 125.132812 89.066406 C 125.3125 87.980469 125.5 86.894531 125.691406 85.808594 C 125.863281 84.847656 125.828125 83.933594 125.171875 83.125 C 124.65625 82.492188 124.160156 81.84375 123.648438 81.207031 C 122.410156 79.664062 121.164062 78.125 119.925781 76.578125 C 119.835938 76.464844 119.789062 76.3125 119.652344 76.046875 C 121.140625 76.480469 122.503906 76.878906 123.863281 77.273438 C 123.3125 75.800781 122.667969 74.476562 121.964844 73.1875 C 121.613281 72.550781 121.425781 71.933594 121.582031 71.210938 C 121.722656 70.566406 121.796875 69.90625 121.929688 69.257812 C 122.300781 67.410156 122.777344 65.582031 122.742188 63.667969 C 122.703125 61.304688 122.667969 56.203125 122.625 55.917969 C 122.484375 56.085938 120.625 60.199219 120.121094 62.324219 C 119.8125 63.636719 119.460938 64.945312 119.109375 66.25 C 119.027344 66.558594 118.859375 66.847656 118.730469 67.148438 C 118.703125 66.042969 118.855469 64.980469 118.875 63.914062 C 118.914062 62.21875 119.042969 60.496094 118.808594 58.832031 C 118.300781 55.285156 117.609375 51.761719 116.945312 48.238281 C 116.691406 46.890625 116.605469 45.566406 116.824219 44.207031 C 117.03125 42.9375 117.265625 39.488281 116.757812 39.078125 C 116.632812 39.253906 116.515625 39.441406 116.378906 39.605469 C 115.28125 40.945312 112.707031 43.957031 112.398438 44.242188 C 112.347656 42.0625 112.816406 40.085938 112.3125 37.984375 C 110.886719 38.945312 109.589844 39.929688 107.960938 40.632812 C 108.039062 40.273438 109.261719 37.140625 109.777344 35.789062 C 110.261719 34.527344 111.0625 33.503906 111.976562 32.53125 C 113.40625 31.007812 115.023438 29.710938 116.675781 28.445312 C 116.960938 28.226562 117.210938 27.960938 117.488281 27.707031 C 116.886719 27.027344 116.359375 26.441406 115.847656 25.84375 C 115.644531 25.609375 115.433594 25.367188 115.28125 25.09375 C 114.953125 24.484375 115.046875 23.972656 115.632812 23.628906 C 116.113281 23.347656 116.65625 23.050781 117.1875 23.011719 C 120.195312 22.777344 123.179688 22.867188 126 24.097656 C 127.410156 24.714844 128.78125 25.421875 130.175781 26.078125 C 130.347656 26.160156 130.53125 26.210938 130.835938 26.324219 C 130.265625 25.058594 129.335938 24.25 128.636719 23.242188 C 129.550781 23.433594 130.425781 23.664062 131.28125 23.949219 C 133.445312 24.671875 135.511719 25.578125 137.238281 27.121094 C 137.382812 27.25 137.492188 27.421875 137.675781 27.644531 C 135.988281 27.824219 134.535156 27.367188 133.066406 26.800781 C 133.445312 28.40625 134.296875 29.203125 135.78125 29.429688 C 136.308594 29.511719 136.832031 29.621094 137.496094 29.742188 C 136.84375 30.285156 136.144531 30.523438 135.8125 31.28125 C 136.125 31.257812 136.339844 31.261719 136.550781 31.230469 C 138.070312 30.984375 139.589844 30.742188 141.105469 30.46875 C 141.710938 30.359375 142.265625 30.429688 142.957031 30.679688 C 142.226562 31.347656 141.738281 32.078125 141.308594 33.050781 C 142.046875 32.847656 142.609375 32.675781 143.1875 32.539062 C 143.976562 32.347656 144.769531 32.085938 145.574219 32.039062 C 146.886719 31.957031 148.210938 31.96875 149.523438 32.035156 C 151.480469 32.136719 153.378906 32.59375 155.25 33.160156 C 156.058594 33.40625 156.605469 33.976562 157.089844 34.828125 C 156.265625 34.917969 155.558594 35.015625 154.851562 35.070312 C 153.332031 35.1875 151.851562 35.3125 150.914062 36.8125 C 150.535156 37.417969 149.820312 37.660156 149.105469 37.703125 C 148.609375 37.730469 148.105469 37.660156 147.601562 37.632812 C 146.773438 37.589844 145.964844 37.246094 145 37.433594 Z M 134.238281 103.058594 C 134.953125 102.609375 135.492188 102.296875 136.003906 101.941406 C 136.488281 101.601562 136.941406 101.214844 137.546875 100.742188 C 137.671875 101.730469 137.777344 102.582031 137.898438 103.539062 C 138.167969 103.421875 138.40625 103.359375 138.59375 103.226562 C 140.734375 101.703125 142.46875 99.863281 143.476562 97.367188 C 144.261719 95.414062 144.804688 93.441406 144.886719 91.339844 C 144.898438 91.117188 145.011719 90.855469 145.164062 90.691406 C 146.445312 89.324219 146.550781 87.933594 145.453125 86.46875 C 145.417969 86.417969 145.402344 86.355469 145.378906 86.296875 C 147.726562 83.304688 148.664062 79.707031 149.699219 76.15625 C 149.839844 75.675781 149.882812 75.164062 149.949219 74.664062 C 149.976562 74.417969 149.953125 74.167969 149.953125 73.859375 C 149.257812 73.953125 147.035156 75.441406 146.433594 75.777344 C 145.859375 76.09375 145.28125 76.398438 144.511719 76.8125 C 144.628906 75.601562 144.730469 74.566406 144.839844 73.445312 C 143.667969 73.632812 142.824219 74.480469 141.726562 74.78125 C 141.371094 73.34375 141.546875 71.925781 141.734375 70.539062 C 141.9375 69.046875 142.320312 67.578125 142.628906 66.101562 C 142.773438 65.398438 143.132812 64.863281 143.699219 64.390625 C 146.144531 62.363281 148.195312 59.992188 149.769531 57.21875 C 150.035156 56.753906 150.335938 56.3125 150.628906 55.863281 C 150.691406 55.761719 150.804688 55.691406 150.992188 55.511719 C 151.699219 57.488281 151.71875 59.46875 151.730469 61.65625 C 152.730469 60.964844 153.652344 60.429688 154.457031 59.757812 C 156.347656 58.171875 158.039062 56.398438 159.210938 54.1875 C 159.71875 53.230469 160.03125 52.226562 160.246094 51.167969 C 160.367188 50.59375 160.59375 50.035156 160.820312 49.492188 C 161.074219 48.882812 161.398438 48.304688 161.660156 47.699219 C 162.28125 46.238281 162.214844 44.738281 161.769531 43.257812 C 161.4375 42.148438 161.019531 41.058594 160.585938 39.976562 C 160.40625 39.53125 160.394531 39.203125 160.652344 38.757812 C 161.277344 37.683594 161.328125 36.511719 160.769531 35.40625 C 160.203125 34.289062 159.574219 33.203125 158.738281 32.238281 C 157.917969 31.289062 156.933594 30.675781 155.746094 30.375 C 153.058594 29.691406 150.332031 29.222656 147.558594 29.074219 C 147.003906 29.042969 146.542969 28.941406 146.089844 28.578125 C 144.78125 27.527344 143.246094 26.980469 141.59375 26.769531 C 140.882812 26.675781 140.296875 26.414062 139.769531 25.90625 C 137.226562 23.449219 134.292969 21.613281 131.003906 20.285156 C 130.207031 19.960938 129.550781 19.210938 128.925781 18.558594 C 128.359375 17.976562 127.933594 17.261719 127.441406 16.605469 C 126.46875 15.308594 126.296875 13.777344 126.144531 12.234375 C 125.96875 10.480469 125.46875 8.84375 124.371094 7.425781 C 123.441406 6.21875 122.265625 5.300781 120.832031 4.332031 C 121.09375 6.144531 121.578125 7.75 120.839844 9.339844 C 120.527344 10.015625 120.265625 10.714844 119.914062 11.5625 C 119.136719 10.691406 118.46875 9.953125 117.816406 9.207031 C 115.660156 6.742188 113.269531 4.5625 110.285156 3.148438 C 108.875 2.476562 105.648438 1.457031 105.445312 1.457031 C 106.976562 3.722656 108.664062 5.839844 109.234375 8.589844 C 108.964844 8.386719 108.699219 8.179688 108.429688 7.976562 C 106.101562 6.203125 103.707031 4.523438 101.121094 3.125 C 98.78125 1.859375 96.25 1.277344 93.660156 0.90625 C 92.292969 0.710938 88.976562 0.566406 88.660156 0.726562 C 90.335938 1.621094 92.34375 2.746094 94.875 6.675781 C 94.664062 6.613281 87.511719 4.023438 84 3.261719 C 81.464844 2.710938 78.894531 2.457031 76.304688 2.605469 C 74.003906 2.742188 71.742188 3.152344 69.535156 3.808594 C 67.816406 4.316406 63.472656 5.753906 62.816406 6.007812 C 64.890625 6.605469 66.773438 7.101562 68.625 7.6875 C 70.476562 8.277344 72.214844 9.132812 73.925781 10.136719 C 73.722656 10.15625 66.578125 10.296875 63.210938 10.378906 C 59.050781 10.484375 54.90625 10.757812 50.777344 11.289062 C 47.519531 11.707031 44.652344 13.109375 41.921875 14.863281 C 39.039062 16.714844 36.613281 19.097656 34.097656 21.386719 C 30.375 24.773438 27.214844 28.644531 24.234375 32.675781 C 23.207031 34.066406 21.03125 37.515625 20.847656 37.917969 C 24.035156 36.6875 25.726562 36.070312 26.703125 35.722656 C 27.679688 35.375 28.679688 35.089844 29.679688 34.800781 C 30.644531 34.523438 34.582031 33.40625 35.578125 33.121094 C 36.5625 32.84375 37.558594 32.585938 38.625 32.464844 C 38.445312 32.667969 38.28125 32.886719 38.082031 33.074219 C 34.796875 36.152344 31.476562 39.179688 27.882812 41.917969 C 24.832031 44.246094 21.53125 46.109375 18.167969 47.898438 C 16.832031 48.605469 15.527344 49.367188 14.214844 50.117188 C 11.554688 51.636719 9.675781 53.890625 8.328125 56.59375 C 7.09375 59.066406 5.957031 61.59375 4.75 64.085938 C 4.3125 64.992188 3.792969 65.855469 3.339844 66.753906 C 2.71875 67.988281 2.121094 69.234375 1.402344 70.695312 C 2.039062 70.496094 2.476562 70.386719 2.894531 70.226562 C 5.921875 69.074219 8.929688 67.863281 11.976562 66.765625 C 16.230469 65.234375 25.375 63.871094 25.710938 63.871094 C 25.394531 64.097656 17.960938 68.84375 14.8125 71.613281 C 11.589844 74.449219 8.75 77.652344 6.277344 81.179688 C 4.191406 84.152344 0.742188 91.042969 0.601562 91.398438 C 0.878906 91.304688 9.765625 87.695312 14.144531 86.097656 C 18.628906 84.464844 23.226562 83.328125 27.925781 82.585938 C 31.085938 82.085938 34.269531 82.027344 37.421875 82.667969 C 40.800781 83.355469 42.683594 85.617188 43.492188 88.8125 C 44.164062 91.453125 44.253906 94.152344 43.835938 96.871094 C 42.855469 103.226562 40.742188 109.167969 37.523438 114.738281 C 36.277344 116.890625 35.097656 119.078125 33.570312 121.054688 C 31.6875 123.492188 29.53125 125.628906 26.847656 127.195312 C 26.207031 127.570312 25.589844 127.996094 25.007812 128.582031 C 25.734375 128.652344 26.460938 128.757812 27.191406 128.785156 C 31.355469 128.933594 35.515625 128.769531 39.632812 128.191406 C 48.488281 126.949219 56.242188 123.34375 62.691406 117.0625 C 64.222656 115.570312 65.8125 114.136719 67.429688 112.628906 C 67.636719 113.078125 67.082031 118.1875 66.773438 120.300781 C 66.351562 123.199219 65.699219 126.050781 64.621094 128.789062 C 63.46875 131.710938 61.925781 134.390625 59.808594 136.734375 C 58.027344 138.703125 53.921875 142.300781 53.804688 142.453125 C 54.144531 142.488281 62.300781 141.933594 65.917969 140.683594 C 68.136719 139.917969 70.25 138.824219 72.355469 137.773438 C 74.609375 136.644531 76.75 135.316406 78.796875 133.839844 C 81.425781 131.945312 84.09375 130.082031 86.285156 127.675781 C 87.699219 126.117188 88.941406 124.40625 90.253906 122.757812 C 91.328125 121.398438 93.628906 118.519531 93.867188 118.328125 C 93.175781 121.410156 92.570312 124.34375 91.574219 127.148438 C 90.578125 129.957031 89.402344 132.726562 88.042969 135.378906 C 86.6875 138.011719 85.003906 140.484375 83.4375 143.070312 C 87.105469 142.355469 90.738281 141.609375 94.175781 140.179688 C 97.773438 138.679688 101.40625 137.21875 104.558594 134.84375 C 106.300781 133.527344 107.890625 132.050781 109.238281 130.332031 C 111.492188 127.457031 113.753906 124.582031 115.535156 121.378906 C 116.632812 119.402344 118.921875 114.523438 119.191406 113.941406 C 119.695312 115.34375 119.910156 116.566406 120.097656 117.789062 C 120.664062 121.539062 120.449219 125.257812 119.628906 128.949219 C 119.34375 130.234375 118.753906 133.167969 118.707031 133.585938 C 119.601562 132.8125 120.398438 132.246094 121.046875 131.542969 C 123.46875 128.9375 125.894531 126.332031 128.222656 123.644531 C 130.015625 121.570312 131.285156 119.199219 131.726562 116.433594 C 132.089844 114.136719 132.054688 111.859375 131.546875 109.589844 C 131.136719 107.753906 130.714844 105.914062 130.285156 104.019531 C 131.636719 103.078125 132.972656 102.152344 134.429688 101.140625 C 134.363281 101.804688 134.3125 102.3125 134.238281 103.058594 " fill-opacity="1" fill-rule="evenodd"/></g><path fill="#ffffff" d="M 141.011719 50.039062 C 140.976562 50.089844 139.011719 49.414062 138.050781 49.070312 C 136.546875 48.53125 135.464844 47.511719 134.804688 46.09375 C 134.453125 45.339844 134.253906 44.5 134.078125 43.675781 C 133.632812 41.550781 134.289062 39.636719 135.679688 38.09375 C 137.050781 36.578125 138.835938 35.515625 140.738281 34.722656 C 141.3125 34.480469 141.933594 34.332031 142.546875 34.214844 C 143.101562 34.109375 143.679688 34.023438 144.222656 34.230469 C 142.921875 35.390625 141.609375 36.46875 140.40625 37.65625 C 139.539062 38.507812 138.777344 39.476562 138.035156 40.449219 C 136.984375 41.824219 136.9375 43.34375 137.597656 44.90625 C 138.25 46.453125 139.191406 47.824219 140.25 49.117188 C 140.503906 49.425781 140.757812 49.734375 141.011719 50.039062 Z M 132.1875 32.65625 C 133.519531 33.3125 135.660156 33.269531 137.199219 33.121094 C 137.824219 33.0625 138.453125 32.917969 139.09375 33.070312 C 137.652344 34.445312 136.195312 35.703125 134.890625 37.109375 C 133.570312 38.539062 132.3125 40.046875 131.1875 41.636719 C 130.085938 43.199219 129.109375 44.867188 128.222656 46.566406 C 127.339844 48.257812 126.640625 50.046875 125.789062 51.953125 C 125.710938 51.613281 125.664062 51.46875 125.644531 51.316406 C 125.296875 49.054688 125.476562 46.789062 125.660156 44.535156 C 125.707031 43.949219 125.914062 43.367188 126.144531 42.820312 C 126.820312 41.207031 127.839844 39.808594 128.917969 38.445312 C 129.222656 38.0625 129.523438 37.675781 129.539062 37.1875 C 128.578125 37.597656 127.675781 38.035156 126.738281 38.375 C 125.496094 38.828125 124.269531 38.710938 123.085938 38.097656 C 122.125 37.59375 121.28125 36.945312 120.621094 36.082031 C 120.265625 35.617188 119.882812 35.269531 119.246094 35.207031 C 118.785156 35.164062 118.328125 34.976562 117.898438 34.785156 C 116.800781 34.289062 115.871094 33.582031 115.25 32.484375 C 115.894531 32.511719 116.5 32.625 117.101562 32.75 C 118.265625 32.992188 119.394531 32.984375 120.527344 32.53125 C 121.902344 31.980469 123.339844 31.878906 124.792969 32.214844 C 125.769531 32.441406 126.738281 32.714844 127.71875 32.933594 C 128.101562 33.019531 128.5 33.007812 128.914062 33.046875 C 129.3125 31.214844 128.742188 29.558594 128.507812 27.824219 C 130.902344 28.667969 131.910156 30.441406 132.1875 32.65625 Z M 145 37.433594 C 145.964844 37.246094 146.773438 37.589844 147.601562 37.632812 C 148.105469 37.660156 148.609375 37.730469 149.105469 37.703125 C 149.820312 37.660156 150.535156 37.417969 150.914062 36.8125 C 151.851562 35.3125 153.332031 35.1875 154.851562 35.070312 C 155.558594 35.015625 156.265625 34.917969 157.089844 34.828125 C 156.605469 33.976562 156.058594 33.40625 155.25 33.160156 C 153.378906 32.59375 151.480469 32.136719 149.523438 32.035156 C 148.210938 31.96875 146.886719 31.957031 145.574219 32.039062 C 144.769531 32.085938 143.976562 32.347656 143.1875 32.539062 C 142.609375 32.675781 142.046875 32.847656 141.308594 33.050781 C 141.738281 32.078125 142.226562 31.347656 142.957031 30.679688 C 142.265625 30.429688 141.710938 30.359375 141.105469 30.46875 C 139.589844 30.742188 138.070312 30.984375 136.550781 31.230469 C 136.339844 31.261719 136.125 31.257812 135.8125 31.28125 C 136.144531 30.523438 136.84375 30.285156 137.496094 29.742188 C 136.832031 29.621094 136.308594 29.511719 135.78125 29.429688 C 134.296875 29.203125 133.445312 28.40625 133.066406 26.800781 C 134.535156 27.367188 135.988281 27.824219 137.675781 27.644531 C 137.492188 27.421875 137.382812 27.25 137.238281 27.121094 C 135.511719 25.578125 133.445312 24.671875 131.28125 23.949219 C 130.425781 23.664062 129.550781 23.433594 128.636719 23.242188 C 129.335938 24.25 130.265625 25.058594 130.835938 26.324219 C 130.53125 26.210938 130.347656 26.160156 130.175781 26.078125 C 128.78125 25.421875 127.410156 24.714844 126 24.097656 C 123.179688 22.867188 120.195312 22.777344 117.1875 23.011719 C 116.65625 23.050781 116.113281 23.347656 115.632812 23.628906 C 115.046875 23.972656 114.953125 24.484375 115.28125 25.09375 C 115.433594 25.367188 115.644531 25.609375 115.847656 25.84375 C 116.359375 26.441406 116.886719 27.027344 117.488281 27.707031 C 117.210938 27.960938 116.960938 28.226562 116.675781 28.445312 C 115.023438 29.710938 113.40625 31.007812 111.976562 32.53125 C 111.0625 33.503906 110.261719 34.527344 109.777344 35.789062 C 109.261719 37.140625 108.039062 40.273438 107.960938 40.632812 C 109.589844 39.929688 110.886719 38.945312 112.3125 37.984375 C 112.816406 40.085938 112.347656 42.0625 112.398438 44.242188 C 112.707031 43.957031 115.28125 40.945312 116.378906 39.605469 C 116.515625 39.441406 116.632812 39.253906 116.757812 39.078125 C 117.265625 39.488281 117.03125 42.9375 116.824219 44.207031 C 116.605469 45.566406 116.691406 46.890625 116.945312 48.238281 C 117.609375 51.761719 118.300781 55.285156 118.808594 58.832031 C 119.042969 60.496094 118.914062 62.21875 118.875 63.914062 C 118.855469 64.980469 118.703125 66.042969 118.730469 67.148438 C 118.859375 66.847656 119.027344 66.558594 119.109375 66.25 C 119.460938 64.945312 119.8125 63.636719 120.121094 62.324219 C 120.625 60.199219 122.484375 56.085938 122.625 55.917969 C 122.667969 56.203125 122.703125 61.304688 122.742188 63.667969 C 122.777344 65.582031 122.300781 67.410156 121.929688 69.257812 C 121.796875 69.90625 121.722656 70.566406 121.582031 71.210938 C 121.425781 71.933594 121.613281 72.550781 121.964844 73.1875 C 122.667969 74.476562 123.3125 75.800781 123.863281 77.273438 C 122.503906 76.878906 121.140625 76.480469 119.652344 76.046875 C 119.789062 76.3125 119.835938 76.464844 119.925781 76.578125 C 121.164062 78.125 122.410156 79.664062 123.648438 81.207031 C 124.160156 81.84375 124.65625 82.492188 125.171875 83.125 C 125.828125 83.933594 125.863281 84.847656 125.691406 85.808594 C 125.5 86.894531 125.3125 87.980469 125.132812 89.066406 C 125.09375 89.308594 125.097656 89.554688 125.074219 89.875 C 126.015625 89.480469 126.726562 88.726562 127.871094 88.667969 C 127.003906 90.660156 125.527344 92.351562 125.65625 94.671875 C 126.761719 94.03125 128.988281 92.902344 129.035156 92.953125 C 127.953125 95.007812 126.949219 97.089844 126.324219 99.515625 C 128.445312 98.191406 130.441406 96.945312 132.59375 95.597656 C 132.53125 96.660156 132.085938 97.390625 131.757812 98.148438 C 131.433594 98.894531 131.0625 99.621094 130.628906 100.53125 C 132.9375 99.542969 134.398438 97.664062 136.328125 96.351562 C 136.75 97.027344 136.367188 97.777344 136.578125 98.527344 C 137.917969 97.660156 138.6875 96.359375 139.746094 95.214844 C 139.746094 96.253906 139.898438 98.351562 139.976562 98.363281 C 141.503906 96.28125 141.820312 93.808594 142.21875 91.242188 C 141.769531 91.160156 141.410156 91.03125 141.058594 91.042969 C 139.390625 91.097656 137.726562 91.195312 136.0625 91.269531 C 135.433594 91.300781 134.800781 91.371094 134.175781 91.332031 C 132.535156 91.226562 131.34375 90.441406 130.644531 88.914062 C 129.875 87.246094 129.257812 85.542969 129.003906 83.714844 C 128.960938 83.417969 128.800781 83.128906 128.644531 82.863281 C 128.347656 82.347656 127.949219 81.878906 127.707031 81.339844 C 127.46875 80.804688 127.28125 80.210938 127.234375 79.636719 C 127.097656 78.035156 127.027344 76.429688 126.972656 74.828125 C 126.851562 71.460938 127.085938 68.152344 128.621094 65.0625 C 128.632812 65.035156 128.644531 65.003906 128.652344 64.976562 C 130.703125 59.402344 134.820312 55.8125 140 53.304688 C 143.398438 51.660156 146.855469 50.144531 150.296875 48.601562 C 151.328125 48.140625 152.402344 47.761719 153.46875 47.386719 C 154.324219 47.085938 155.03125 46.574219 155.660156 45.949219 C 156.328125 45.285156 156.335938 44.820312 155.78125 44.054688 C 154.285156 41.980469 154.28125 41.984375 151.773438 41.3125 C 150.316406 40.921875 148.859375 40.527344 147.410156 40.101562 C 146.09375 39.714844 145.566406 38.613281 145 37.433594 " fill-opacity="1" fill-rule="evenodd"/><path fill="#ffffff" d="M 90.429688 83.625 C 88.917969 92.300781 86.726562 100.792969 83.292969 108.945312 C 83.363281 108.996094 89.582031 102.644531 90.984375 99.214844 C 91.960938 96.828125 92.910156 94.429688 93.851562 92.03125 C 94.125 91.328125 94.316406 90.597656 94.570312 89.886719 C 95.644531 86.863281 96.710938 83.835938 98.125 80.945312 C 98.960938 79.234375 99.933594 77.617188 101.234375 76.234375 C 104.222656 73.066406 105.90625 69.25 106.898438 65.089844 C 107.378906 63.074219 108.183594 58.0625 108.144531 57.570312 C 106.59375 60.5 104.769531 63.222656 102.691406 65.78125 C 100.628906 68.320312 98.507812 70.804688 95.613281 72.714844 C 95.722656 71.839844 95.839844 71.085938 95.90625 70.324219 C 96.085938 68.128906 96.203125 65.925781 96.429688 63.734375 C 96.816406 60.027344 97.546875 56.390625 99.105469 52.976562 C 99.996094 51.03125 102.101562 46.773438 102.195312 46.558594 C 102.144531 46.515625 100.121094 47.917969 99.210938 48.722656 C 97.296875 50.40625 95.386719 52.097656 93.527344 53.84375 C 90.8125 56.402344 87.5625 57.84375 83.980469 58.714844 C 80.027344 59.675781 76.015625 60.246094 71.996094 60.785156 C 71.03125 60.917969 70.070312 61.070312 69.082031 61.214844 C 70.40625 62.402344 77.457031 63.710938 81.25 63.542969 C 85.472656 63.351562 89.527344 62.488281 93.429688 60.582031 C 93.351562 61.222656 93.328125 61.785156 93.214844 62.328125 C 92.667969 64.945312 92.164062 67.570312 91.519531 70.164062 C 90.941406 72.511719 89.765625 74.621094 88.359375 76.5625 C 85.753906 80.15625 82.496094 83.039062 78.570312 85.144531 C 76.421875 86.296875 74.085938 86.941406 71.753906 87.617188 C 69.023438 88.410156 66.21875 88.789062 63.375 89.175781 C 69.1875 92.183594 82.097656 91.859375 90.429688 83.625 " fill-opacity="1" fill-rule="evenodd"/><path fill="#ffffff" d="M 31.804688 51.363281 C 34.617188 50.699219 37.351562 49.917969 39.851562 48.457031 C 43.039062 46.59375 46.105469 44.542969 48.746094 41.960938 C 50.945312 39.804688 52.945312 37.445312 55.039062 35.179688 C 56.980469 33.074219 58.882812 30.929688 60.886719 28.886719 C 63.105469 26.617188 65.882812 25.171875 68.789062 24.015625 C 72.398438 22.585938 76.183594 21.78125 80.011719 21.179688 C 80.644531 21.078125 81.300781 21.085938 82.160156 21.027344 C 81.820312 20.785156 81.671875 20.644531 81.492188 20.558594 C 77.8125 18.851562 74 17.628906 69.902344 17.480469 C 68.898438 17.445312 67.886719 17.386719 66.890625 17.273438 C 63.339844 16.859375 59.851562 17.398438 56.371094 17.960938 C 53.574219 18.414062 50.800781 18.992188 48.132812 19.972656 C 47.167969 20.328125 46.183594 20.660156 45.296875 21.386719 C 51.597656 20.585938 57.808594 20.199219 64.078125 21.054688 C 63.957031 21.136719 63.84375 21.230469 63.714844 21.300781 C 59.128906 23.820312 55.191406 27.125 51.96875 31.234375 C 50.519531 33.085938 49.324219 35.140625 47.996094 37.085938 C 46.054688 39.925781 44.019531 42.683594 41.390625 44.941406 C 39.015625 46.980469 36.378906 48.636719 33.679688 50.203125 C 33.046875 50.570312 32.429688 50.972656 31.804688 51.363281 " fill-opacity="1" fill-rule="evenodd"/><path fill="#ffffff" d="M 111.652344 103.421875 C 112.300781 102.746094 112.996094 102.109375 113.589844 101.390625 C 114.59375 100.167969 115.367188 98.800781 115.957031 97.328125 C 116.5 95.96875 116.761719 94.566406 116.742188 93.09375 C 116.714844 90.914062 116.496094 88.757812 116.136719 86.613281 C 115.386719 82.085938 114.699219 77.542969 113.871094 73.03125 C 113.421875 70.589844 112.050781 65.503906 111.820312 65.367188 C 111.742188 66.085938 111.632812 66.804688 111.59375 67.523438 C 111.410156 70.796875 110.601562 73.921875 109.347656 76.929688 C 108.992188 77.789062 108.441406 78.585938 107.878906 79.335938 C 106.6875 80.921875 105.441406 82.464844 104.195312 84.007812 C 102 86.730469 100.765625 89.917969 99.757812 93.210938 C 99.414062 94.34375 99.179688 95.511719 98.863281 96.800781 C 99.09375 96.65625 102.914062 91.761719 104.671875 89.304688 C 105.671875 87.910156 106.78125 86.636719 108.035156 85.488281 C 109.523438 84.125 110.535156 84.296875 111.425781 86.105469 C 112.6875 88.679688 113.503906 91.414062 113.441406 94.28125 C 113.378906 97.375 111.601562 103.363281 111.652344 103.421875 " fill-opacity="1" fill-rule="evenodd"/><path fill="#ffffff" d="M 103.074219 27.976562 C 104.128906 26.683594 105.0625 25.539062 106.078125 24.292969 C 105.140625 23.890625 104.269531 23.480469 103.371094 23.132812 C 100.390625 21.992188 97.304688 21.253906 94.117188 20.996094 C 91.445312 20.777344 89.386719 21.84375 88.019531 24.136719 C 86.785156 26.207031 86.476562 28.464844 87.074219 30.78125 C 87.296875 31.640625 87.746094 32.5 88.289062 33.210938 C 90.421875 36.015625 95.40625 42.054688 95.480469 42.011719 C 95.355469 39.5625 95.226562 37.105469 95.097656 34.570312 C 93.628906 34.21875 92.277344 33.625 91.128906 32.445312 C 93.046875 31.722656 94.96875 31.292969 96.578125 30.070312 C 96.304688 29.492188 95.820312 29.230469 95.292969 29.019531 C 93.53125 28.328125 91.71875 27.816406 89.847656 27.519531 C 89.699219 27.496094 89.550781 27.464844 89.378906 27.433594 C 89.996094 26.738281 91.378906 26.222656 93.808594 25.902344 C 95.4375 25.691406 97.070312 25.796875 98.699219 26.085938 C 100.304688 26.371094 101.605469 27.375 103.074219 27.976562 " fill-opacity="1" fill-rule="evenodd"/><path fill="#ffffff" d="M 142.542969 55.097656 C 142.207031 57.695312 141.882812 60.183594 141.550781 62.769531 C 141.757812 62.621094 143.949219 60.621094 144.847656 59.699219 C 146.273438 58.242188 147.011719 56.402344 147.617188 54.507812 C 147.773438 54.019531 147.988281 53.660156 148.476562 53.472656 C 150.589844 52.675781 152.699219 51.871094 154.816406 51.078125 C 155.03125 51 155.277344 50.996094 155.742188 50.921875 C 155.25 51.566406 154.917969 52.0625 154.523438 52.496094 C 154.027344 53.042969 153.808594 53.660156 153.8125 54.382812 C 153.824219 55.40625 153.816406 56.429688 153.816406 57.539062 C 154.574219 56.785156 155.195312 55.960938 155.699219 55.085938 C 156.46875 53.757812 157.097656 52.347656 157.789062 50.976562 C 158.007812 50.542969 157.960938 50.128906 157.738281 49.714844 C 157.425781 49.136719 157.289062 49.113281 156.613281 49.148438 C 153.542969 49.308594 150.839844 50.542969 148.203125 51.96875 C 146.269531 53.011719 144.355469 54.09375 142.542969 55.097656 " fill-opacity="1" fill-rule="evenodd"/><path fill="#ffffff" d="M 137.605469 76.527344 C 135.859375 75.929688 135.226562 74.527344 134.851562 72.992188 C 134.308594 70.761719 133.875 68.507812 133.339844 66.273438 C 133.019531 64.941406 132.59375 63.632812 132.1875 62.214844 C 131.738281 62.613281 131.511719 62.945312 131.664062 63.390625 C 132.191406 64.9375 132.207031 66.554688 132.238281 68.152344 C 132.28125 70.210938 132.492188 72.230469 133.09375 74.207031 C 133.132812 74.324219 133.148438 74.453125 133.15625 74.578125 C 133.164062 74.667969 133.148438 74.761719 133.136719 74.925781 C 132.316406 74.457031 131.746094 73.84375 131.371094 73.019531 C 130.878906 71.9375 130.359375 70.867188 129.761719 69.605469 C 129.652344 70.320312 129.542969 70.839844 129.492188 71.363281 C 129.378906 72.550781 129.234375 73.742188 129.195312 74.933594 C 129.132812 76.882812 130.269531 78.148438 131.78125 79.148438 C 131.96875 79.273438 132.367188 79.300781 132.542969 79.183594 C 134.046875 78.191406 137.429688 76.691406 137.605469 76.527344 " fill-opacity="1" fill-rule="evenodd"/><path fill="#ffffff" d="M 107.261719 19.832031 C 106.566406 18.1875 105.535156 16.832031 104.164062 15.730469 C 102.257812 14.203125 100.039062 13.351562 97.730469 12.679688 C 93.679688 11.503906 85.09375 11.730469 84.9375 11.902344 C 85.0625 11.945312 96.28125 14.835938 101.542969 16.945312 C 103.089844 17.5625 104.542969 18.398438 106.03125 19.144531 C 106.453125 19.351562 106.851562 19.601562 107.261719 19.832031 " fill-opacity="1" fill-rule="evenodd"/><path fill="#ffffff" d="M 105.144531 12.964844 C 111.148438 15.398438 117.109375 17.472656 122.839844 20.09375 C 122.746094 18.273438 117.929688 13.101562 114.925781 11.679688 C 115.382812 12.949219 116.398438 13.839844 116.820312 15.289062 C 114.867188 14.3125 113.019531 13.691406 111.082031 13.332031 C 109.152344 12.972656 107.214844 12.890625 105.144531 12.964844 " fill-opacity="1" fill-rule="evenodd"/><path fill="#ffffff" d="M 141.742188 77.261719 C 141.074219 77.570312 140.570312 77.738281 140.136719 78.011719 C 138.757812 78.890625 137.398438 79.800781 136.050781 80.726562 C 135.773438 80.914062 135.527344 81.1875 135.351562 81.476562 C 134.847656 82.3125 135.015625 83.125 135.765625 83.746094 C 136.648438 84.472656 138.058594 84.390625 138.851562 83.566406 C 138.984375 83.429688 139.105469 83.28125 139.214844 83.132812 C 140.472656 81.433594 141.042969 79.453125 141.742188 77.261719 " fill-opacity="1" fill-rule="evenodd"/><path fill="#ffffff" d="M 145.019531 79.476562 C 144.613281 79.820312 144.21875 80.179688 143.824219 80.542969 C 143.640625 80.710938 143.4375 80.878906 143.316406 81.089844 C 142.832031 81.9375 142.371094 82.792969 141.917969 83.65625 C 141.757812 83.964844 141.59375 84.367188 141.949219 84.59375 C 142.195312 84.757812 142.605469 84.808594 142.902344 84.734375 C 143.515625 84.582031 144.023438 84.234375 144.417969 83.695312 C 145.265625 82.539062 145.882812 81.277344 146.390625 79.949219 C 146.644531 79.28125 146.917969 78.617188 147.183594 77.953125 C 147.132812 77.898438 145.683594 78.90625 145.019531 79.476562 " fill-opacity="1" fill-rule="evenodd"/><path fill="#ffffff" d="M 131.503906 83.199219 C 131.511719 84.183594 132.648438 87.121094 133.222656 87.613281 C 133.859375 88.15625 134.5625 88.460938 135.46875 88.28125 C 136.230469 88.132812 137.027344 88.148438 137.808594 88.132812 C 138.988281 88.113281 140.167969 88.128906 141.429688 88.128906 C 141.074219 87.585938 140.566406 87.339844 140.019531 87.257812 C 138.878906 87.085938 137.71875 86.886719 136.570312 86.890625 C 135.230469 86.890625 134.1875 86.433594 133.371094 85.402344 C 133.039062 84.988281 132.742188 84.542969 132.402344 84.128906 C 132.148438 83.824219 131.851562 83.554688 131.503906 83.199219 " fill-opacity="1" fill-rule="evenodd"/><path fill="#ffffff" d="M 134.375 61.398438 C 134.609375 62.160156 134.859375 62.871094 135.050781 63.59375 C 135.238281 64.3125 135.371094 65.050781 135.566406 65.96875 C 136.046875 65.535156 136.433594 65.246094 136.75 64.886719 C 137.117188 64.472656 137.046875 64.097656 136.59375 63.78125 C 136.289062 63.570312 135.960938 63.394531 135.59375 63.175781 C 135.996094 62.457031 136.371094 61.78125 136.808594 61.003906 C 135.894531 60.984375 135.132812 61.160156 134.375 61.398438 " fill-opacity="1" fill-rule="evenodd"/><path fill="#ffffff" d="M 158.644531 47.21875 C 159.621094 45.539062 159.414062 43.304688 158.144531 41.964844 C 157.96875 43.285156 157.78125 44.546875 157.632812 45.816406 C 157.550781 46.519531 157.8125 46.859375 158.644531 47.21875 " fill-opacity="1" fill-rule="evenodd"/><path fill="#ffffff" d="M 136.046875 67.679688 C 136.316406 69.261719 136.585938 70.84375 136.855469 72.421875 C 136.933594 72.429688 137.308594 71.976562 137.316406 71.742188 C 137.339844 70.582031 137.351562 69.421875 137.320312 68.265625 C 137.296875 67.347656 136.914062 67.1875 136.046875 67.679688 " fill-opacity="1" fill-rule="evenodd"/><path fill="#000000" d="M 127.683594 34.960938 C 126.824219 36.113281 124.769531 36.445312 123.765625 35.660156 C 123.691406 35.601562 123.617188 35.539062 123.5625 35.46875 C 123.292969 35.109375 123.214844 34.730469 123.457031 34.328125 C 123.695312 33.9375 124.019531 33.933594 124.4375 34.058594 C 125.484375 34.378906 126.546875 34.652344 127.683594 34.960938 Z M 132.1875 32.65625 C 131.910156 30.441406 130.902344 28.667969 128.507812 27.824219 C 128.742188 29.558594 129.3125 31.214844 128.914062 33.046875 C 128.5 33.007812 128.101562 33.019531 127.71875 32.933594 C 126.738281 32.714844 125.769531 32.441406 124.792969 32.214844 C 123.339844 31.878906 121.902344 31.980469 120.527344 32.53125 C 119.394531 32.984375 118.265625 32.992188 117.101562 32.75 C 116.5 32.625 115.894531 32.511719 115.25 32.484375 C 115.871094 33.582031 116.800781 34.289062 117.898438 34.785156 C 118.328125 34.976562 118.785156 35.164062 119.246094 35.207031 C 119.882812 35.269531 120.265625 35.617188 120.621094 36.082031 C 121.28125 36.945312 122.125 37.59375 123.085938 38.097656 C 124.269531 38.710938 125.496094 38.828125 126.738281 38.375 C 127.675781 38.035156 128.578125 37.597656 129.539062 37.1875 C 129.523438 37.675781 129.222656 38.0625 128.917969 38.445312 C 127.839844 39.808594 126.820312 41.207031 126.144531 42.820312 C 125.914062 43.367188 125.707031 43.949219 125.660156 44.535156 C 125.476562 46.789062 125.296875 49.054688 125.644531 51.316406 C 125.664062 51.46875 125.710938 51.613281 125.789062 51.953125 C 126.640625 50.046875 127.339844 48.257812 128.222656 46.566406 C 129.109375 44.867188 130.085938 43.199219 131.1875 41.636719 C 132.3125 40.046875 133.570312 38.539062 134.890625 37.109375 C 136.195312 35.703125 137.652344 34.445312 139.09375 33.070312 C 138.453125 32.917969 137.824219 33.0625 137.199219 33.121094 C 135.660156 33.269531 133.519531 33.3125 132.1875 32.65625 " fill-opacity="1" fill-rule="evenodd"/><path fill="#000000" d="M 141.011719 50.039062 C 140.757812 49.734375 140.503906 49.425781 140.25 49.117188 C 139.191406 47.824219 138.25 46.453125 137.597656 44.90625 C 136.9375 43.34375 136.984375 41.824219 138.035156 40.449219 C 138.777344 39.476562 139.539062 38.507812 140.40625 37.65625 C 141.609375 36.46875 142.921875 35.390625 144.222656 34.230469 C 143.679688 34.023438 143.101562 34.109375 142.546875 34.214844 C 141.933594 34.332031 141.3125 34.480469 140.738281 34.722656 C 138.835938 35.515625 137.050781 36.578125 135.679688 38.09375 C 134.289062 39.636719 133.632812 41.550781 134.078125 43.675781 C 134.253906 44.5 134.453125 45.339844 134.804688 46.09375 C 135.464844 47.511719 136.546875 48.53125 138.050781 49.070312 C 139.011719 49.414062 140.976562 50.089844 141.011719 50.039062 " fill-opacity="1" fill-rule="evenodd"/><path fill="#ffffff" d="M 127.683594 34.960938 C 126.546875 34.652344 125.484375 34.378906 124.4375 34.058594 C 124.019531 33.933594 123.695312 33.9375 123.457031 34.328125 C 123.214844 34.730469 123.292969 35.109375 123.5625 35.46875 C 123.617188 35.539062 123.691406 35.601562 123.765625 35.660156 C 124.769531 36.445312 126.824219 36.113281 127.683594 34.960938 " fill-opacity="1" fill-rule="evenodd"/></g></g></g><g mask="url(#bccb7c27e8)"><g transform="matrix(1, 0, 0, 1, 98, 237)"><g clip-path="url(#b6b523da01)"><g fill="#000000" fill-opacity="1"><g transform="translate(1.721798, 25.934317)"><g><path d="M 10.652344 -7.523438 C 10.515625 -8.519531 9.953125 -12.480469 9.585938 -14.078125 L 8.71875 -18.9375 L 10.652344 -18.9375 L 10.652344 -23.265625 L -0.332031 -23.265625 L -0.332031 -18.9375 L 1.53125 -18.9375 L 5.925781 0 L 13.644531 0 L 15.675781 -7.988281 C 15.910156 -8.953125 16.34375 -11.050781 16.476562 -12.046875 L 16.609375 -12.046875 C 16.773438 -11.015625 17.140625 -9.054688 17.441406 -7.921875 L 19.4375 0 L 27.324219 0 L 32.285156 -18.9375 L 34.117188 -18.9375 L 34.117188 -23.265625 L 24.597656 -23.265625 L 24.597656 -18.9375 L 26.425781 -18.9375 L 25.296875 -13.878906 C 24.996094 -12.480469 24.429688 -9.019531 24.296875 -7.523438 L 24.128906 -7.523438 C 23.964844 -9.1875 23.597656 -11.914062 23.132812 -14.078125 L 21.035156 -23.265625 L 14.113281 -23.265625 L 12.449219 -15.777344 C 11.78125 -12.613281 10.882812 -8.453125 10.816406 -7.523438 Z M 10.652344 -7.523438 "/></g></g></g><g fill="#000000" fill-opacity="1"><g transform="translate(35.501788, 25.934317)"><g><path d="M 0.832031 -23.265625 L 0.832031 -18.871094 L 2.929688 -18.871094 L 2.929688 -4.425781 L 0.832031 -4.425781 L 0.832031 0 L 11.882812 0 L 11.882812 -4.425781 L 9.820312 -4.425781 L 9.820312 -18.871094 L 11.882812 -18.871094 L 11.882812 -23.265625 Z M 0.832031 -23.265625 "/></g></g></g><g fill="#000000" fill-opacity="1"><g transform="translate(48.21504, 25.934317)"><g><path d="M 0.832031 -23.265625 L 0.832031 -18.871094 L 2.664062 -18.871094 L 2.664062 -4.425781 L 0.832031 -4.425781 L 0.832031 0 L 19.46875 0 L 19.46875 -8.652344 L 13.878906 -8.652344 L 13.878906 -4.425781 L 9.585938 -4.425781 L 9.585938 -18.871094 L 11.347656 -18.871094 L 11.347656 -23.265625 Z M 0.832031 -23.265625 "/></g></g></g><g fill="#000000" fill-opacity="1"><g transform="translate(68.516316, 25.934317)"><g><path d="M 0.832031 0 L 10.851562 0 C 19.039062 0 23.632812 -4.359375 23.632812 -11.949219 C 23.632812 -18.304688 19.039062 -23.265625 10.984375 -23.265625 L 0.832031 -23.265625 L 0.832031 -18.871094 L 2.894531 -18.871094 L 2.894531 -4.425781 L 0.832031 -4.425781 Z M 9.71875 -4.425781 L 9.71875 -18.871094 L 10.984375 -18.871094 C 14.511719 -18.871094 15.976562 -15.511719 15.976562 -11.949219 C 15.976562 -7.789062 14.511719 -4.492188 10.984375 -4.425781 Z M 9.71875 -4.425781 "/></g></g></g><g fill="#000000" fill-opacity="1"><g transform="translate(92.478474, 25.934317)"><g><path d="M 0.832031 -23.265625 L 0.832031 -18.871094 L 2.664062 -18.871094 L 2.664062 -4.425781 L 0.832031 -4.425781 L 0.832031 0 L 19.46875 0 L 19.46875 -8.652344 L 13.878906 -8.652344 L 13.878906 -4.425781 L 9.585938 -4.425781 L 9.585938 -18.871094 L 11.347656 -18.871094 L 11.347656 -23.265625 Z M 0.832031 -23.265625 "/></g></g></g><g fill="#000000" fill-opacity="1"><g transform="translate(112.77975, 25.934317)"><g><path d="M 0.832031 -23.265625 L 0.832031 -18.871094 L 2.929688 -18.871094 L 2.929688 -4.425781 L 0.832031 -4.425781 L 0.832031 0 L 11.882812 0 L 11.882812 -4.425781 L 9.820312 -4.425781 L 9.820312 -18.871094 L 11.882812 -18.871094 L 11.882812 -23.265625 Z M 0.832031 -23.265625 "/></g></g></g><g fill="#000000" fill-opacity="1"><g transform="translate(125.493003, 25.934317)"><g><path d="M 12.414062 0.597656 C 19.9375 0.597656 24.128906 -3.992188 24.128906 -11.515625 C 24.128906 -19.003906 20.335938 -23.898438 12.183594 -23.898438 C 5.292969 -23.898438 0.5 -18.9375 0.5 -11.75 C 0.5 -3.429688 5.457031 0.597656 12.414062 0.597656 Z M 12.414062 -4.625 C 10.285156 -4.625 8.71875 -7.390625 8.71875 -11.75 C 8.71875 -15.875 10.117188 -18.804688 12.148438 -18.773438 C 14.710938 -18.773438 15.808594 -15.542969 15.808594 -11.515625 C 15.808594 -7.390625 14.511719 -4.625 12.414062 -4.625 Z M 12.414062 -4.625 "/></g></g></g><g fill="#000000" fill-opacity="1"><g transform="translate(150.120774, 25.934317)"><g><path d="M 26.328125 -18.972656 L 26.328125 -23.265625 L 16.308594 -23.265625 L 16.308594 -18.972656 L 18.570312 -18.972656 L 18.570312 -11.050781 L 10.417969 -23.265625 L 0.867188 -23.265625 L 0.867188 -18.972656 L 2.796875 -18.972656 L 2.796875 -4.292969 L 0.832031 -4.292969 L 0.832031 0 L 11.050781 0 L 11.050781 -4.292969 L 8.488281 -4.292969 L 8.488281 -12.679688 L 16.972656 0 L 24.128906 0 L 24.128906 -18.972656 Z M 26.328125 -18.972656 "/></g></g></g></g></g></g><g fill="#000000" fill-opacity="1"><g transform="translate(65.724521, 284.81731)"><g><path d="M 2.734375 -10.921875 L 2.734375 0 L 1.25 0 L 1.25 -10.921875 Z M 2.734375 -10.921875 "/></g></g></g><g fill="#000000" fill-opacity="1"><g transform="translate(83.652772, 284.81731)"><g><path d="M 10.1875 -10.921875 L 10.1875 0 L 8.6875 0 L 2.640625 -8.5 L 2.640625 0 L 1.25 0 L 1.25 -10.921875 L 2.75 -10.921875 L 8.796875 -2.296875 L 8.796875 -10.921875 Z M 10.1875 -10.921875 "/></g></g></g><g fill="#000000" fill-opacity="1"><g transform="translate(109.034114, 284.81731)"><g><path d="M 4.234375 0 L 0.140625 -10.921875 L 1.78125 -10.921875 L 4.28125 -4 C 4.375 -3.71875 4.488281 -3.351562 4.625 -2.90625 C 4.769531 -2.457031 4.941406 -1.878906 5.140625 -1.171875 C 5.285156 -1.722656 5.429688 -2.25 5.578125 -2.75 C 5.722656 -3.25 5.851562 -3.664062 5.96875 -4 L 8.46875 -10.921875 L 10.0625 -10.921875 L 5.96875 0 Z M 4.234375 0 "/></g></g></g><g fill="#000000" fill-opacity="1"><g transform="translate(133.179085, 284.81731)"><g><path d="M 8.5 -1.390625 L 8.5 0 L 1.25 0 L 1.25 -10.921875 L 8.34375 -10.921875 L 8.34375 -9.578125 L 2.734375 -9.578125 L 2.734375 -6.234375 L 7.703125 -6.234375 L 7.703125 -4.9375 L 2.734375 -4.9375 L 2.734375 -1.390625 Z M 8.5 -1.390625 "/></g></g></g><g fill="#000000" fill-opacity="1"><g transform="translate(156.226973, 284.81731)"><g><path d="M 5.46875 -4.578125 L 2.828125 -5.203125 C 2.085938 -5.378906 1.554688 -5.679688 1.234375 -6.109375 C 0.910156 -6.535156 0.75 -7.125 0.75 -7.875 C 0.75 -8.976562 1.0625 -9.789062 1.6875 -10.3125 C 2.320312 -10.832031 3.3125 -11.09375 4.65625 -11.09375 C 5.207031 -11.09375 5.707031 -11.066406 6.15625 -11.015625 C 6.601562 -10.960938 7.019531 -10.882812 7.40625 -10.78125 L 7.40625 -9.4375 C 6.914062 -9.550781 6.445312 -9.628906 6 -9.671875 C 5.5625 -9.722656 5.109375 -9.75 4.640625 -9.75 C 3.742188 -9.75 3.113281 -9.617188 2.75 -9.359375 C 2.394531 -9.097656 2.21875 -8.640625 2.21875 -7.984375 C 2.21875 -7.566406 2.300781 -7.25 2.46875 -7.03125 C 2.632812 -6.8125 2.910156 -6.65625 3.296875 -6.5625 L 5.921875 -5.9375 C 6.847656 -5.71875 7.460938 -5.40625 7.765625 -5 C 8.078125 -4.601562 8.234375 -3.988281 8.234375 -3.15625 C 8.234375 -1.957031 7.921875 -1.109375 7.296875 -0.609375 C 6.679688 -0.109375 5.703125 0.140625 4.359375 0.140625 C 3.648438 0.140625 2.96875 0.09375 2.3125 0 C 1.65625 -0.09375 1.132812 -0.210938 0.75 -0.359375 L 0.75 -1.765625 C 1.289062 -1.597656 1.867188 -1.46875 2.484375 -1.375 C 3.109375 -1.289062 3.734375 -1.25 4.359375 -1.25 C 5.222656 -1.25 5.828125 -1.375 6.171875 -1.625 C 6.523438 -1.882812 6.703125 -2.382812 6.703125 -3.125 C 6.703125 -3.570312 6.617188 -3.894531 6.453125 -4.09375 C 6.285156 -4.300781 5.957031 -4.460938 5.46875 -4.578125 Z M 5.46875 -4.578125 "/></g></g></g><g fill="#000000" fill-opacity="1"><g transform="translate(178.944002, 284.81731)"><g><path d="M 8.984375 -10.921875 L 8.984375 -9.578125 L 5.359375 -9.578125 L 5.359375 0 L 3.890625 0 L 3.890625 -9.578125 L 0.265625 -9.578125 L 0.265625 -10.921875 Z M 8.984375 -10.921875 "/></g></g></g><g fill="#000000" fill-opacity="1"><g transform="translate(202.1312, 284.81731)"><g><path d="M 11.546875 -10.921875 L 11.546875 0 L 10.15625 0 L 10.15625 -8.609375 L 7.03125 -2.171875 L 5.765625 -2.171875 L 2.640625 -8.625 L 2.640625 0 L 1.25 0 L 1.25 -10.921875 L 3.125 -10.921875 L 6.421875 -3.96875 L 9.75 -10.921875 Z M 11.546875 -10.921875 "/></g></g></g><g fill="#000000" fill-opacity="1"><g transform="translate(228.870807, 284.81731)"><g><path d="M 8.5 -1.390625 L 8.5 0 L 1.25 0 L 1.25 -10.921875 L 8.34375 -10.921875 L 8.34375 -9.578125 L 2.734375 -9.578125 L 2.734375 -6.234375 L 7.703125 -6.234375 L 7.703125 -4.9375 L 2.734375 -4.9375 L 2.734375 -1.390625 Z M 8.5 -1.390625 "/></g></g></g><g fill="#000000" fill-opacity="1"><g transform="translate(251.918695, 284.81731)"><g><path d="M 10.1875 -10.921875 L 10.1875 0 L 8.6875 0 L 2.640625 -8.5 L 2.640625 0 L 1.25 0 L 1.25 -10.921875 L 2.75 -10.921875 L 8.796875 -2.296875 L 8.796875 -10.921875 Z M 10.1875 -10.921875 "/></g></g></g><g fill="#000000" fill-opacity="1"><g transform="translate(277.300045, 284.81731)"><g><path d="M 8.984375 -10.921875 L 8.984375 -9.578125 L 5.359375 -9.578125 L 5.359375 0 L 3.890625 0 L 3.890625 -9.578125 L 0.265625 -9.578125 L 0.265625 -10.921875 Z M 8.984375 -10.921875 "/></g></g></g><g fill="#000000" fill-opacity="1"><g transform="translate(300.487256, 284.81731)"><g><path d="M 5.46875 -4.578125 L 2.828125 -5.203125 C 2.085938 -5.378906 1.554688 -5.679688 1.234375 -6.109375 C 0.910156 -6.535156 0.75 -7.125 0.75 -7.875 C 0.75 -8.976562 1.0625 -9.789062 1.6875 -10.3125 C 2.320312 -10.832031 3.3125 -11.09375 4.65625 -11.09375 C 5.207031 -11.09375 5.707031 -11.066406 6.15625 -11.015625 C 6.601562 -10.960938 7.019531 -10.882812 7.40625 -10.78125 L 7.40625 -9.4375 C 6.914062 -9.550781 6.445312 -9.628906 6 -9.671875 C 5.5625 -9.722656 5.109375 -9.75 4.640625 -9.75 C 3.742188 -9.75 3.113281 -9.617188 2.75 -9.359375 C 2.394531 -9.097656 2.21875 -8.640625 2.21875 -7.984375 C 2.21875 -7.566406 2.300781 -7.25 2.46875 -7.03125 C 2.632812 -6.8125 2.910156 -6.65625 3.296875 -6.5625 L 5.921875 -5.9375 C 6.847656 -5.71875 7.460938 -5.40625 7.765625 -5 C 8.078125 -4.601562 8.234375 -3.988281 8.234375 -3.15625 C 8.234375 -1.957031 7.921875 -1.109375 7.296875 -0.609375 C 6.679688 -0.109375 5.703125 0.140625 4.359375 0.140625 C 3.648438 0.140625 2.96875 0.09375 2.3125 0 C 1.65625 -0.09375 1.132812 -0.210938 0.75 -0.359375 L 0.75 -1.765625 C 1.289062 -1.597656 1.867188 -1.46875 2.484375 -1.375 C 3.109375 -1.289062 3.734375 -1.25 4.359375 -1.25 C 5.222656 -1.25 5.828125 -1.375 6.171875 -1.625 C 6.523438 -1.882812 6.703125 -2.382812 6.703125 -3.125 C 6.703125 -3.570312 6.617188 -3.894531 6.453125 -4.09375 C 6.285156 -4.300781 5.957031 -4.460938 5.46875 -4.578125 Z M 5.46875 -4.578125 "/></g></g></g></svg>